<svg width="690" height="124" viewBox="0 0 690 124" fill="none" xmlns="http://www.w3.org/2000/svg">
<path d="M179.735 122.09V30.5225H193.39V122.09H179.735ZM179.735 13.8556V0H193.39V13.8556H179.735Z" fill="#1B47F7"/>
<path d="M141.982 32.1282V6.02344H155.636V32.1282H169.492V44.3774H155.636V102.41C155.636 104.017 156.239 105.423 157.444 106.627C158.649 107.832 160.054 108.435 161.661 108.435H169.492V122.089H157.243C153.093 122.089 149.478 120.617 146.399 117.672C143.454 114.593 141.982 110.978 141.982 106.828V44.3774H129.732V32.1282H141.982Z" fill="#1B47F7"/>
<path d="M49.7856 97.5921C49.7856 89.8276 53.3332 83.4018 60.4284 78.3147C66.8542 73.7631 74.7526 71.0857 84.1235 70.2825C90.6832 69.747 95.6364 68.7429 98.9832 67.2704C103.669 65.3962 106.011 62.3171 106.011 58.0333C106.011 53.3478 104.204 49.3986 100.59 46.1857C96.9751 42.9728 92.6912 41.3664 87.738 41.3664C82.5171 41.3664 77.9655 42.9059 74.0832 45.9849C70.0671 49.1978 68.059 53.2139 68.059 58.0333V61.0454H54.2034V55.0212C54.2034 47.2567 57.684 40.8978 64.6453 35.9446C71.0711 31.393 78.7687 29.1172 87.738 29.1172C96.3058 29.1172 103.736 31.4599 110.028 36.1454C116.587 41.0986 119.867 47.3906 119.867 55.0212V100.805C119.867 103.349 120.804 105.49 122.678 107.231C124.419 108.971 126.561 109.841 129.104 109.841V122.09H123.682C120.068 122.09 116.788 121.153 113.843 119.279C110.898 117.271 108.823 114.661 107.618 111.448C104.807 115.598 100.857 118.677 95.7703 120.685C91.0848 122.559 85.9308 123.496 80.3082 123.496C71.0711 123.496 63.7082 121.153 58.2195 116.468C52.5969 111.782 49.7856 105.49 49.7856 97.5921ZM63.4405 97.5921C63.4405 101.474 65.1808 104.687 68.6614 107.231C71.8743 109.507 75.7566 110.645 80.3082 110.645C87.2695 110.645 93.2267 108.57 98.18 104.42C103.401 100.27 106.011 94.9816 106.011 88.5558V76.3066C102.263 79.3857 95.4356 81.3268 85.5292 82.13L81.7138 82.3308C76.7606 82.7324 72.5437 84.272 69.063 86.9494C65.3147 89.7607 63.4405 93.3082 63.4405 97.5921Z" fill="#1B47F7"/>
<path d="M0 122.089V32.1279H13.6548V47.9916C15.6629 42.5029 19.2774 38.2191 24.4984 35.14C29.4516 32.061 35.0072 30.5215 41.1653 30.5215H47.1895V44.3771H41.1653C33.4008 44.3771 26.8411 47.4561 21.4863 53.6142C16.2653 59.5045 13.6548 66.5997 13.6548 74.8997V122.089H0Z" fill="#1B47F7"/>
<path d="M366.955 29.2168V123.495H248.293L248.299 123.487C247.994 123.492 247.687 123.495 247.379 123.495C234.874 123.495 224.856 119.216 217.326 110.657C209.796 102.099 206.031 90.6643 206.031 76.3555C206.031 62.0469 209.796 50.6132 217.326 42.0547C224.856 33.4962 234.874 29.2169 247.379 29.2168C247.689 29.2168 247.998 29.2194 248.305 29.2246L248.293 29.2168H366.955ZM325.733 41.2803V55.7549H340.208V113.653H354.682V41.2803H325.733ZM247.379 41.4531C239.043 41.4532 232.319 44.6623 227.209 51.0811C222.234 57.3662 219.747 65.7912 219.747 76.3555C219.747 86.9199 222.234 95.4121 227.209 101.831C232.319 108.25 239.043 111.46 247.379 111.46C255.716 111.46 262.44 108.25 267.55 101.831C272.526 95.4121 275.013 86.9199 275.013 76.3555C275.013 65.7912 272.526 57.3662 267.55 51.0811C262.44 44.6622 255.716 41.4531 247.379 41.4531Z" fill="#1B47F7"/>
<path d="M648.478 31.8447C661.403 31.8448 670.968 37.3462 677.373 45.5889C683.837 53.9082 687.155 65.1362 687.155 76.5C687.155 87.8638 683.837 99.0918 677.373 107.411C670.968 115.654 661.403 121.155 648.478 121.155H382.845V31.8447H648.478Z" stroke="#1B47F7" stroke-width="5.68921"/>
<path d="M403.368 77.2328C403.368 71.6463 404.947 66.8493 408.104 62.8416C411.383 58.591 415.543 56.4658 420.583 56.4658C422.89 56.4658 425.016 57.073 426.959 58.2874C428.963 59.4411 430.541 61.0199 431.695 63.0238V42.6211H437.98V97.9998H431.695V91.4418C430.481 93.567 428.932 95.2673 427.05 96.5424C424.985 97.939 422.83 98.6373 420.583 98.6373C415.482 98.6373 411.292 96.421 408.013 91.9883C404.917 87.8591 403.368 82.9406 403.368 77.2328ZM409.562 77.2328C409.562 81.4226 410.473 84.9748 412.294 87.8895C414.359 91.1685 417.122 92.808 420.583 92.808C424.044 92.808 426.807 91.1685 428.871 87.8895C430.754 84.9748 431.695 81.4226 431.695 77.2328C431.695 73.1644 430.754 69.6728 428.871 66.7582C426.746 63.6006 423.983 62.0218 420.583 62.0218C417.182 62.0218 414.45 63.6006 412.385 66.7582C410.503 69.6728 409.562 73.1644 409.562 77.2328Z" fill="#1B47F7"/>
<path d="M443.282 86.8876C443.282 83.3657 444.891 80.451 448.11 78.1436C451.024 76.079 454.607 74.8646 458.858 74.5003C461.833 74.2574 464.08 73.802 465.598 73.134C467.723 72.2839 468.786 70.8873 468.786 68.9442C468.786 66.8189 467.966 65.0276 466.326 63.5703C464.687 62.1129 462.744 61.3843 460.497 61.3843C458.129 61.3843 456.064 62.0826 454.303 63.4792C452.482 64.9365 451.571 66.7582 451.571 68.9442V70.3104H445.286V67.5779C445.286 64.056 446.865 61.1717 450.022 58.925C452.937 56.8605 456.429 55.8282 460.497 55.8282C464.383 55.8282 467.753 56.8908 470.607 59.0161C473.583 61.2628 475.07 64.1168 475.07 67.5779V88.3449C475.07 89.4986 475.495 90.4702 476.346 91.2596C477.135 92.049 478.106 92.4437 479.26 92.4437V97.9998H476.801C475.161 97.9998 473.674 97.5747 472.338 96.7246C471.002 95.8138 470.061 94.6297 469.514 93.1723C468.239 95.0547 466.448 96.4513 464.14 97.3622C462.015 98.2123 459.677 98.6373 457.127 98.6373C452.937 98.6373 449.597 97.5747 447.108 95.4494C444.557 93.3241 443.282 90.4702 443.282 86.8876ZM449.476 86.8876C449.476 88.6485 450.265 90.1059 451.844 91.2596C453.301 92.2919 455.062 92.808 457.127 92.808C460.285 92.808 462.987 91.8668 465.233 89.9844C467.602 88.102 468.786 85.7035 468.786 82.7888V77.2328C467.085 78.6294 463.989 79.5098 459.495 79.8742L457.765 79.9653C455.518 80.1474 453.605 80.8457 452.026 82.0602C450.326 83.3353 449.476 84.9445 449.476 86.8876Z" fill="#1B47F7"/>
<path d="M485.101 57.1944V45.3536H491.295V57.1944H497.58V62.7505H491.295V89.0736C491.295 89.8023 491.568 90.4398 492.115 90.9863C492.661 91.5328 493.299 91.8061 494.027 91.8061H497.58V97.9998H492.024C490.141 97.9998 488.502 97.3318 487.105 95.9959C485.769 94.5993 485.101 92.9598 485.101 91.0774V62.7505H479.545V57.1944H485.101Z" fill="#1B47F7"/>
<path d="M499.494 86.8876C499.494 83.3657 501.103 80.451 504.321 78.1436C507.236 76.079 510.819 74.8646 515.069 74.5003C518.045 74.2574 520.291 73.802 521.809 73.134C523.935 72.2839 524.997 70.8873 524.997 68.9442C524.997 66.8189 524.178 65.0276 522.538 63.5703C520.899 62.1129 518.955 61.3843 516.709 61.3843C514.341 61.3843 512.276 62.0826 510.515 63.4792C508.693 64.9365 507.783 66.7582 507.783 68.9442V70.3104H501.498V67.5779C501.498 64.056 503.077 61.1717 506.234 58.925C509.149 56.8605 512.64 55.8282 516.709 55.8282C520.595 55.8282 523.965 56.8908 526.819 59.0161C529.794 61.2628 531.282 64.1168 531.282 67.5779V88.3449C531.282 89.4986 531.707 90.4702 532.557 91.2596C533.347 92.049 534.318 92.4437 535.472 92.4437V97.9998H533.013C531.373 97.9998 529.885 97.5747 528.55 96.7246C527.214 95.8138 526.272 94.6297 525.726 93.1723C524.451 95.0547 522.659 96.4513 520.352 97.3622C518.227 98.2123 515.889 98.6373 513.339 98.6373C509.149 98.6373 505.809 97.5747 503.319 95.4494C500.769 93.3241 499.494 90.4702 499.494 86.8876ZM505.688 86.8876C505.688 88.6485 506.477 90.1059 508.056 91.2596C509.513 92.2919 511.274 92.808 513.339 92.808C516.496 92.808 519.198 91.8668 521.445 89.9844C523.813 88.102 524.997 85.7035 524.997 82.7888V77.2328C523.297 78.6294 520.2 79.5098 515.707 79.8742L513.976 79.9653C511.729 80.1474 509.817 80.8457 508.238 82.0602C506.538 83.3353 505.688 84.9445 505.688 86.8876Z" fill="#1B47F7"/>
<path d="M537.396 77.2328C537.396 71.6463 538.975 66.8493 542.133 62.8416C545.412 58.591 549.571 56.4658 554.611 56.4658C556.979 56.4658 559.105 56.9212 560.987 57.832C563.112 58.8036 564.691 60.2002 565.723 62.0218V57.832H572.008V97.9998C572.008 102.129 570.217 105.499 566.634 108.11C563.294 110.6 559.287 111.844 554.611 111.844C550.361 111.844 546.687 110.843 543.59 108.839C540.19 106.592 538.338 103.647 538.034 100.004H544.319C544.683 102.068 545.928 103.677 548.053 104.831C549.875 105.803 552.061 106.288 554.611 106.288C557.586 106.288 560.137 105.56 562.262 104.102C564.57 102.584 565.723 100.55 565.723 97.9998V92.4437C564.691 94.2653 563.112 95.6619 560.987 96.6335C559.105 97.5443 556.979 97.9998 554.611 97.9998C549.571 97.9998 545.412 95.8745 542.133 91.6239C538.975 87.6163 537.396 82.8192 537.396 77.2328ZM543.59 77.2328C543.59 81.3011 544.531 84.7927 546.414 87.7073C548.478 90.8649 551.211 92.4437 554.611 92.4437C558.012 92.4437 560.774 90.8649 562.9 87.7073C564.782 84.7927 565.723 81.3011 565.723 77.2328C565.723 73.1644 564.782 69.7032 562.9 66.8493C560.774 63.6917 558.012 62.1129 554.611 62.1129C551.211 62.1129 548.478 63.6917 546.414 66.8493C544.531 69.7032 543.59 73.1644 543.59 77.2328Z" fill="#1B47F7"/>
<path d="M577.733 77.2328C577.733 70.7355 579.312 65.5437 582.47 61.6575C585.627 57.7713 589.817 55.8282 595.039 55.8282C600.261 55.8282 604.451 57.7713 607.609 61.6575C610.766 65.5437 612.345 70.7355 612.345 77.2328V79.3277H583.927C583.927 83.5175 584.929 86.8572 586.933 89.3468C588.997 91.8972 591.699 93.1723 595.039 93.1723C597.954 93.1723 600.352 92.4133 602.235 90.8953C604.117 89.3772 605.18 87.3734 605.423 84.8838H611.616C611.252 89.0736 609.552 92.4133 606.516 94.9029C603.54 97.3925 599.715 98.6373 595.039 98.6373C589.817 98.6373 585.627 96.6942 582.47 92.808C579.312 88.9218 577.733 83.73 577.733 77.2328ZM583.927 73.7716H606.06C605.757 70.0068 604.603 67.0011 602.599 64.7543C600.595 62.5076 598.075 61.3843 595.039 61.3843C592.003 61.3843 589.483 62.5076 587.479 64.7543C585.415 67.0011 584.231 70.0068 583.927 73.7716Z" fill="#1B47F7"/>
<path d="M617.6 97.9998V57.832H623.794V62.0218C624.887 60.1395 626.496 58.7125 628.622 57.7409C630.625 56.8908 632.842 56.4658 635.271 56.4658C639.582 56.4658 643.256 58.0445 646.292 61.2021C649.328 64.2989 650.846 68.0333 650.846 72.4053V97.9998H644.561V72.4053C644.561 69.6121 643.559 67.244 641.555 65.3008C639.552 63.3577 637.123 62.3862 634.269 62.3862C631.415 62.3862 628.956 63.3577 626.891 65.3008C624.826 67.244 623.794 69.6121 623.794 72.4053V97.9998H617.6Z" fill="#1B47F7"/>
</svg>
